<?xml version="1.0" encoding="UTF-8"?>
<svg width="7.5761mm" height="7.5761mm" version="1.1" viewBox="0 0 7.5761 7.5761" xmlns="http://www.w3.org/2000/svg" xmlns:cc="http://creativecommons.org/ns#" xmlns:dc="http://purl.org/dc/elements/1.1/" xmlns:rdf="http://www.w3.org/1999/02/22-rdf-syntax-ns#">
	<title>File2Package logo</title>
	<metadata>
		<rdf:RDF>
			<cc:Work rdf:about="">
				<dc:format>image/svg+xml</dc:format>
				<dc:type rdf:resource="http://purl.org/dc/dcmitype/StillImage"/>
				<dc:title>File2Package logo</dc:title>
				<dc:creator>
					<cc:Agent>
						<dc:title>KOLANICH</dc:title>
					</cc:Agent>
				</dc:creator>
				<cc:license rdf:resource="https://creativecommons.org/publicdomain/zero/1.0/"/>
			</cc:Work>
			<cc:License rdf:about="https://creativecommons.org/publicdomain/zero/1.0/">
				<cc:permits rdf:resource="https://creativecommons.org/ns#Reproduction"/>
				<cc:permits rdf:resource="https://creativecommons.org/ns#Distribution"/>
				<cc:permits rdf:resource="https://creativecommons.org/ns#DerivativeWorks"/>
			</cc:License>
		</rdf:RDF>
	</metadata>
	<rect x="3.1395" y="6.4648" width=".95122" height="1.1111" fill="#00f"/>
	<path d="m4.6917 3.5628s0.34416-0.46975 0.40454-1.0687c0.03566-0.35378 0.03858-0.6461-0.04513-0.9596-0.05047-0.18904-0.13346-0.23193-0.27355-0.41123-0.24694-0.21872-0.56797-0.32808-0.96308-0.32808-0.36689 0-0.69144 0.0635-0.97366 0.1905-0.27517 0.127-0.56437 0.27141-0.85364 0.49718l-0.49043-0.59243c0.29633-0.24694 0.635-0.45508 1.016-0.62442 0.38805-0.17639 0.82197-0.26458 1.3017-0.26458 0.70555 0 1.2559 0.14794 1.6652 0.50777 0.13716 0.12835 0.36359 0.34703 0.44622 0.58828 0.35337 1.0317 0.07367 1.7798-0.32415 2.4385" fill="#0f0" aria-label="2"/>
	<path transform="translate(-42.142 -70.658)" d="m46.67 70.658c0.98778-8.59e-4 1.7194 0.09068 2.171 0.47873 0.45155 0.38806 0.62281 0.78955 0.66574 1.4792 0.02586 0.41547-0.09525 0.80786-0.28575 1.1747-0.18344 0.35983-0.49742 0.65264-0.94191 0.87841-0.43744 0.22578-1.0336 0.33512-1.7886 0.33867l-0.25766 0.0012 3e-6 0.02117h-0.9507l-0.0022-4.3709zm-0.08467 0.81491-0.3529 0.0012 3.78e-4 2.7199 0.15182-0.0012c1.0498-0.0084 1.2559-0.11642 1.6087-0.34925 0.35278-0.23283 0.57065-0.62949 0.52916-1.1853-0.03308-0.44321-0.14401-0.74536-0.45445-0.98525s-0.8124-0.20237-1.4827-0.20008z" fill="#00f" aria-label="P"/>
	<path d="m5.8751 3.0163c-0.13512 0.47277-0.97776 1.506-1.4797 2.0576l-1.9523 1.8327v0.13493h3.7955v0.5344h-4.8287l0.00516-0.5344 2.2951-2.2099c0.51912-0.55519 1.0806-1.2223 1.2839-1.8735" fill="#0f0"/>
	<rect x="3.1395" y="4.3718" width=".95152" height="2.093" ry="0" fill="#00f"/>
	<path transform="translate(-39.257 -73.501)" d="m40.667 81.077h-0.9525v-7.5747h4.0217l-1.454 0.85015-1.6152-0.01407v6.7387z" fill="#f00" aria-label="F"/>
	<path d="m1.4101 3.5362 1.9029-2.9e-6 0.77725 0.8356-2.6802 4.762e-4c0.00506-0.54085 0.00506-0.59795 0-0.83608z" fill="#f00" stroke-width=".26458"/>
</svg>
